<?xml version="1.0" standalone="no"?>
<!DOCTYPE svg PUBLIC "-//W3C//DTD SVG 20010904//EN"
 "http://www.w3.org/TR/2001/REC-SVG-20010904/DTD/svg10.dtd">
<svg version="1.0" xmlns="http://www.w3.org/2000/svg"
 width="200" height="200" viewBox="0 0 427.000000 464.000000"
 preserveAspectRatio="xMidYMid meet">


<g transform="translate(0.000000,464.000000) scale(0.100000,-0.100000)"
fill="#000000" stroke="none">
<path d="M1917 4606 c-12 -31 53 -34 128 -6 l50 18 -86 1 c-66 1 -88 -2 -92
-13z"/>
<path d="M2394 4599 c69 -24 119 -22 124 4 3 15 -6 17 -90 16 l-93 0 59 -20z"/>
<path d="M1837 4583 c-13 -12 -7 -70 7 -82 18 -15 50 -1 60 25 13 35 -43 82
-67 57z"/>
<path d="M2540 4565 c-11 -28 2 -75 20 -75 24 0 50 22 50 41 0 56 -52 81 -70
34z"/>
<path d="M1710 4487 c-25 -13 -68 -39 -95 -57 -64 -44 -225 -199 -225 -216 0
-16 4 -17 28 -5 9 5 39 13 66 18 53 9 73 29 34 35 -42 6 -24 23 27 26 60 4 78
17 51 38 -26 18 -16 26 34 26 28 -1 40 4 40 13 0 8 -4 17 -10 20 -23 14 -7 25
40 25 51 0 60 6 38 29 -11 10 -9 15 6 27 11 8 26 14 33 14 7 0 13 7 13 15 0
21 -28 19 -80 -8z"/>
<path d="M2640 4500 c0 -5 16 -16 35 -25 36 -14 36 -15 19 -40 l-16 -25 51 0
c51 0 61 -6 40 -27 -18 -18 -2 -31 36 -30 44 1 53 -8 30 -33 -10 -11 -14 -20
-9 -21 5 -1 28 -2 52 -3 50 -2 79 -23 44 -32 -34 -9 -26 -22 21 -34 23 -6 54
-15 69 -20 16 -4 30 -5 32 -1 7 11 -72 99 -151 166 -106 91 -253 163 -253 125z"/>
<path d="M598 4225 c-197 -54 -362 -260 -414 -517 -25 -122 -16 -338 18 -438
25 -71 75 -200 103 -265 117 -268 160 -457 153 -664 -5 -129 -4 -131 16 -125
12 3 36 22 54 41 29 33 32 42 32 100 0 48 3 63 14 63 8 0 18 -9 21 -20 9 -27
25 -25 27 3 3 45 -4 69 -32 126 -30 59 -42 151 -20 151 6 0 10 -10 10 -22 0
-42 26 -99 63 -139 20 -21 41 -39 47 -39 29 0 -1 123 -41 165 -10 10 -13 55
-3 55 3 0 14 -5 24 -10 47 -25 25 53 -36 127 -39 48 -39 63 1 45 24 -11 25
-10 25 18 0 30 21 42 35 20 15 -24 25 -6 25 44 0 51 -3 58 -50 109 -54 59 -61
77 -30 77 11 0 20 6 20 14 0 20 -43 52 -115 85 -33 16 -70 39 -82 52 -30 33
-38 72 -19 88 22 19 42 8 62 -34 14 -31 46 -55 71 -55 3 0 3 15 0 34 -3 19 -3
37 0 40 3 3 24 -10 46 -29 41 -35 61 -42 85 -27 21 14 -10 72 -53 101 -66 45
-75 87 -15 64 19 -7 32 -8 36 -2 11 18 -16 65 -47 83 -33 19 -30 36 6 36 30 0
55 10 55 21 0 5 -13 15 -30 24 -32 16 -41 45 -15 45 20 0 75 28 75 38 0 5 -17
14 -37 21 -81 28 -143 122 -143 215 1 77 59 170 128 203 24 12 60 18 102 18
84 0 141 -31 170 -90 24 -50 24 -69 2 -115 -38 -78 -152 -108 -203 -54 -32 34
-33 95 -1 126 l22 22 0 -46 c0 -37 5 -50 22 -62 55 -39 118 -3 118 67 0 31 -7
46 -34 73 -30 30 -40 34 -86 34 -88 0 -140 -56 -140 -150 0 -52 25 -99 73
-134 23 -17 43 -21 107 -21 72 0 81 2 117 31 143 115 102 314 -80 381 -42 15
-200 14 -259 -2z m-88 -131 c0 -3 -11 -20 -24 -37 -55 -71 -69 -123 -70 -252
-1 -127 10 -185 50 -265 12 -25 31 -56 43 -69 29 -33 26 -44 -7 -27 -81 42
-149 224 -139 371 7 110 31 179 88 248 26 32 59 49 59 31z m-214 -521 c0 -147
11 -209 54 -294 27 -52 110 -135 187 -187 53 -35 102 -86 92 -96 -8 -9 -217
141 -251 180 -91 103 -122 187 -122 335 0 99 17 199 34 199 4 0 7 -62 6 -137z"/>
<path d="M3575 4228 c-53 -19 -114 -68 -140 -112 -32 -55 -35 -148 -5 -206 40
-78 126 -117 217 -98 88 18 143 79 143 157 0 53 -12 80 -51 119 -29 28 -39 32
-90 32 -51 0 -61 -4 -88 -31 -81 -81 8 -216 93 -141 14 14 17 26 12 61 -6 43
-6 43 17 29 17 -12 23 -27 25 -64 4 -66 -25 -96 -92 -96 -62 0 -109 31 -131
84 -21 54 -13 98 26 143 57 65 170 83 256 40 108 -54 152 -200 94 -313 -24
-46 -53 -73 -109 -101 -36 -18 -41 -25 -31 -37 6 -8 29 -17 50 -20 34 -6 37
-9 28 -26 -6 -10 -21 -24 -35 -30 -41 -19 -34 -26 40 -43 l28 -6 -41 -38 c-41
-38 -51 -64 -30 -77 6 -3 16 -1 22 5 15 15 47 14 47 -1 0 -7 -25 -35 -55 -63
-64 -58 -77 -98 -34 -103 18 -2 36 7 63 33 43 40 63 36 46 -10 -6 -15 -8 -30
-5 -33 12 -12 56 20 80 58 27 43 49 49 69 18 8 -14 6 -26 -8 -53 -15 -27 -37
-44 -94 -72 -107 -52 -163 -103 -113 -103 37 0 32 -20 -14 -68 -52 -52 -65
-78 -65 -127 0 -42 12 -50 45 -29 26 17 29 15 25 -24 -2 -22 1 -23 29 -17 17
4 31 3 31 -1 0 -4 -15 -25 -33 -48 -44 -53 -57 -79 -57 -111 0 -22 3 -24 19
-15 11 5 22 10 25 10 14 0 3 -39 -24 -85 -20 -34 -30 -64 -30 -92 0 -55 18
-56 56 -6 35 46 46 66 64 121 9 29 16 38 22 30 12 -20 -1 -77 -35 -146 -32
-66 -38 -115 -18 -135 9 -9 13 -7 18 11 10 41 28 17 33 -45 4 -45 12 -69 33
-96 15 -20 32 -37 37 -37 4 0 15 -3 23 -6 12 -4 14 20 13 163 -1 110 3 185 12
218 7 28 18 68 24 90 5 22 14 48 19 57 5 10 9 24 9 32 0 12 11 42 51 144 8 20
14 35 38 95 5 12 18 43 30 69 12 26 21 54 21 61 0 8 3 17 7 20 4 4 17 38 30
75 21 62 23 84 23 292 0 216 -1 228 -25 294 -77 212 -220 356 -401 405 -52 14
-199 13 -239 -1z m397 -155 c30 -32 51 -72 75 -140 22 -66 23 -229 0 -303 -23
-75 -70 -154 -107 -180 -37 -26 -60 -17 -32 14 76 85 112 190 112 324 0 54 -6
117 -14 143 -18 58 -50 121 -70 138 -9 8 -16 17 -16 22 0 18 27 8 52 -18z
m173 -364 c12 -19 35 -143 35 -189 0 -61 -26 -183 -51 -238 -31 -66 -109 -144
-226 -222 -57 -39 -103 -66 -103 -61 0 18 43 61 97 97 176 116 255 279 239
492 -3 48 -9 97 -12 110 -6 23 9 31 21 11z"/>
<path d="M1910 4195 c0 -3 5 -14 12 -24 9 -15 6 -27 -15 -64 l-25 -46 24 16
c14 9 32 29 40 45 14 27 14 32 -1 54 -14 21 -35 33 -35 19z"/>
<path d="M2275 4177 c-34 -40 -22 -177 17 -177 5 0 4 9 -2 19 -14 27 -13 144
2 159 6 6 9 14 7 17 -3 2 -14 -6 -24 -18z"/>
<path d="M2560 4190 c0 -5 5 -10 10 -10 6 0 10 -13 10 -30 0 -16 5 -30 10 -30
14 0 12 54 -2 68 -15 15 -28 16 -28 2z"/>
<path d="M2052 4168 c-20 -41 -23 -65 -13 -108 10 -45 26 -68 38 -57 4 4 1 13
-5 19 -14 14 -16 107 -2 142 12 32 -2 35 -18 4z"/>
<path d="M2145 4096 c0 -93 1 -95 17 -73 24 30 24 117 1 146 -17 21 -18 19
-18 -73z"/>
<path d="M2365 4095 c0 -52 1 -95 2 -95 10 0 33 66 33 95 0 29 -23 95 -33 95
-1 0 -2 -43 -2 -95z"/>
<path d="M2482 4164 c1 -9 9 -19 16 -22 9 -3 13 2 10 14 -1 9 -9 19 -16 22 -9
3 -13 -2 -10 -14z"/>
<path d="M1352 4132 c-38 -35 -48 -73 -32 -113 30 -72 137 -75 160 -3 9 27 9
38 -1 50 -17 21 -52 14 -64 -14 -11 -25 -23 -24 -39 2 -9 14 -6 22 17 42 80
69 182 -36 116 -120 -42 -54 -135 -70 -241 -42 -77 20 -151 47 -166 59 -17 13
-28 1 -37 -40 -5 -26 -2 -34 18 -47 71 -47 338 -70 402 -34 79 43 119 131 91
199 -8 20 -29 48 -46 63 -26 21 -42 26 -90 26 -50 0 -62 -4 -88 -28z"/>
<path d="M1820 4153 c0 -5 4 -14 9 -22 11 -17 32 -5 24 14 -5 15 -33 21 -33 8z"/>
<path d="M2896 4128 c-83 -73 -57 -203 52 -255 58 -28 254 -23 347 9 l70 24
-2 43 c-1 24 -4 46 -7 49 -3 3 -25 -4 -48 -16 -42 -20 -70 -30 -154 -51 -60
-16 -146 -13 -182 5 -38 18 -72 60 -72 86 0 44 52 98 93 98 7 0 25 -11 41 -23
24 -19 28 -28 22 -50 -8 -35 -19 -34 -33 3 -19 50 -73 35 -73 -21 0 -34 41
-69 81 -69 15 0 40 11 55 23 23 20 27 32 27 72 0 43 -4 52 -33 77 -29 23 -43
28 -90 28 -50 0 -61 -4 -94 -32z"/>
<path d="M2573 4097 c4 -10 7 -37 7 -59 0 -27 4 -38 13 -36 22 8 20 56 -4 86
-13 16 -20 20 -16 9z"/>
<path d="M2480 4035 c0 -14 4 -25 9 -25 12 0 23 29 15 41 -10 18 -24 9 -24
-16z"/>
<path d="M1836 4022 c-3 -3 -6 -11 -6 -19 0 -9 17 -13 60 -13 54 0 60 2 60 21
0 16 -3 19 -12 12 -25 -19 -46 -21 -71 -8 -14 7 -28 11 -31 7z"/>
<path d="M787 3633 c-12 -11 -8 -1506 3 -1586 38 -257 92 -439 196 -652 110
-227 220 -379 400 -557 111 -109 176 -162 314 -253 173 -115 458 -249 525
-247 18 1 77 20 130 43 270 116 509 282 715 495 90 94 203 234 230 285 7 13
16 26 19 29 3 3 12 16 19 29 46 81 56 99 77 140 91 178 150 361 196 611 24
124 24 130 24 895 l0 770 -1421 3 c-781 1 -1424 -1 -1427 -5z m1401 -1647 l2
-1568 -27 7 c-50 12 -326 150 -418 209 -448 288 -739 716 -862 1266 l-27 125
-4 754 c-2 414 -1 760 2 767 5 12 112 14 668 12 l663 -3 3 -1569z m1380 864
c2 -499 0 -730 -8 -790 -23 -165 -68 -362 -99 -435 -5 -11 -24 -58 -42 -105
-140 -360 -445 -713 -803 -929 -102 -62 -302 -159 -346 -167 l-30 -6 0 1564
c0 861 3 1568 7 1571 3 4 302 6 662 5 l656 -3 3 -705z"/>
<path d="M1131 3178 c-5 -13 -6 -29 -3 -37 4 -11 8 -10 18 3 11 16 13 16 23
-1 10 -17 10 -17 11 0 0 24 -18 57 -31 57 -5 0 -13 -10 -18 -22z"/>
<path d="M921 3112 c-6 -11 -11 -29 -11 -38 0 -17 1 -17 13 1 13 17 14 17 22
-6 8 -24 8 -24 12 5 3 17 -1 35 -10 44 -13 13 -16 12 -26 -6z"/>
<path d="M1350 3104 c0 -8 7 -22 15 -30 13 -14 16 -14 21 0 3 9 4 23 0 31 -7
20 -36 19 -36 -1z"/>
<path d="M1144 3085 c-4 -9 -4 -38 -2 -65 3 -28 2 -50 -1 -50 -4 0 -13 -43
-20 -96 -14 -106 -10 -117 39 -112 21 3 25 9 28 43 2 22 -2 58 -8 80 -7 22
-12 77 -11 122 1 77 -11 115 -25 78z"/>
<path d="M924 3015 c-4 -8 -4 -30 -1 -48 2 -17 -2 -57 -10 -87 -8 -30 -13 -68
-11 -85 3 -26 7 -30 33 -30 l30 0 -3 80 c-2 44 -7 81 -11 83 -4 1 -6 25 -3 52
3 34 1 50 -7 50 -6 0 -14 -7 -17 -15z"/>
<path d="M1351 2968 c1 -34 -4 -88 -11 -120 -17 -73 -10 -90 32 -86 38 3 38 0
16 162 -8 60 -18 101 -26 104 -9 3 -12 -13 -11 -60z"/>
<path d="M895 2740 c-4 -6 12 -10 39 -10 25 0 46 5 46 10 0 6 -18 10 -39 10
-22 0 -43 -4 -46 -10z"/>
<path d="M1105 2740 c-4 -6 14 -10 47 -10 38 0 49 3 38 10 -20 13 -77 13 -85
0z"/>
<path d="M1330 2740 c-11 -7 -2 -10 33 -10 30 0 46 4 42 10 -8 13 -55 13 -75
0z"/>
<path d="M1680 2740 c-8 -5 -24 -7 -35 -4 -29 7 -168 -31 -179 -49 -16 -26 18
-67 57 -67 36 -1 58 -14 75 -46 16 -31 -18 -67 -56 -58 -44 11 -47 10 -47 -11
0 -23 47 -34 69 -16 8 6 20 9 27 6 9 -3 22 7 32 25 10 17 23 28 28 24 6 -3 13
3 16 15 6 25 22 27 49 7 17 -13 18 -15 2 -21 -9 -4 -22 -4 -28 0 -7 4 -14 -2
-17 -14 -4 -16 -11 -20 -24 -16 -15 5 -19 1 -19 -19 0 -31 -55 -63 -77 -45
-16 14 -18 12 -27 -19 -8 -26 18 -42 37 -23 18 18 27 13 27 -14 0 -14 5 -25
10 -25 6 0 10 16 10 35 0 32 3 35 29 35 24 0 30 5 35 30 4 24 11 30 31 30 15
0 25 6 25 14 0 22 19 29 36 15 14 -11 14 -13 0 -21 -9 -5 -16 -16 -16 -25 0
-12 -7 -14 -30 -9 -28 5 -30 3 -30 -24 0 -23 -4 -30 -20 -30 -11 0 -20 -6 -20
-13 0 -7 -9 -23 -20 -34 -20 -22 -20 -22 0 -28 26 -8 40 1 40 26 0 18 4 20 30
14 28 -6 30 -5 30 24 0 28 2 31 25 25 21 -5 25 -3 25 15 0 14 5 19 15 15 11
-5 15 1 15 25 0 17 5 31 10 31 6 0 10 -11 10 -25 0 -14 8 -29 20 -35 25 -13
27 5 6 53 -19 46 -52 73 -70 58 -18 -15 -66 -4 -66 15 0 17 5 17 31 4 14 -8
19 -7 19 1 0 8 12 10 36 6 30 -5 34 -4 24 8 -15 18 -86 38 -106 31 -20 -8 -17
8 4 27 16 15 21 15 38 2 10 -8 30 -14 44 -14 l25 0 -24 17 c-13 9 -31 17 -40
17 -9 0 -17 9 -19 20 -8 41 -38 56 -72 35z m36 -20 c8 0 14 -4 14 -10 0 -5 -7
-10 -15 -10 -9 0 -12 -6 -9 -15 4 -9 0 -15 -9 -15 -15 0 -27 20 -27 47 0 10 6
13 16 9 9 -3 22 -6 30 -6z m-109 -42 c31 -29 29 -36 -9 -34 -19 1 -33 7 -32
14 4 51 7 52 41 20z"/>
<path d="M926 2703 c-10 -10 -7 -20 10 -37 11 -11 35 -16 79 -16 77 0 100 -7
85 -25 -8 -10 -8 -15 0 -20 8 -5 7 -11 -1 -22 -8 -9 -9 -17 -3 -21 5 -4 9 -24
9 -45 0 -40 -15 -57 -52 -57 -13 0 -23 -4 -23 -10 0 -6 42 -10 105 -10 79 0
105 -3 104 -12 -5 -29 14 -68 32 -68 14 0 19 -7 19 -25 0 -14 5 -25 10 -25 6
0 10 -7 10 -16 0 -10 6 -14 15 -10 8 3 18 -2 23 -11 7 -11 18 -14 38 -10 16 3
47 10 69 14 48 10 54 35 10 43 -21 4 -29 11 -27 22 1 9 -5 19 -15 22 -35 11
-71 52 -84 95 -9 31 -23 49 -48 66 -20 12 -53 41 -74 64 -21 23 -43 39 -48 35
-6 -4 -6 -11 2 -20 9 -11 9 -21 1 -39 -13 -29 -6 -55 14 -55 8 0 17 -7 20 -15
4 -10 20 -15 45 -15 35 0 39 -3 39 -25 0 -18 -5 -25 -20 -25 -13 0 -18 5 -14
15 5 11 -1 15 -18 15 -13 0 -33 7 -44 15 -10 8 -30 15 -43 15 -20 0 -22 2 -10
16 10 13 10 17 -2 26 -11 7 -11 11 -1 15 17 7 15 32 -3 39 -14 6 -13 8 1 19
16 11 16 13 -2 23 -18 10 -17 11 6 16 14 3 70 7 124 9 80 2 101 5 110 19 15
24 0 34 -22 15 -14 -13 -38 -17 -99 -17 -74 0 -81 2 -86 21 -6 23 -27 17 -27
-7 0 -11 -19 -14 -95 -14 -76 0 -95 3 -95 14 0 17 -14 28 -24 19z"/>
<path d="M1465 2564 c-22 -8 -53 -12 -68 -9 -23 4 -28 1 -25 -13 4 -24 52 -27
91 -7 76 39 84 45 62 44 -11 0 -38 -7 -60 -15z"/>
<path d="M1965 2476 c-45 -20 -85 -71 -85 -110 0 -18 11 -55 25 -82 14 -27 25
-57 25 -67 0 -22 24 -17 28 6 2 9 -8 38 -21 65 -16 32 -22 54 -16 63 7 11 9 9
9 -8 0 -12 12 -36 27 -53 24 -29 28 -31 39 -15 11 15 13 15 23 -2 9 -16 10
-16 11 6 0 13 -14 39 -31 58 -33 38 -33 52 0 32 23 -15 41 -5 23 13 -40 40 14
96 62 64 50 -32 44 -96 -17 -185 -45 -66 -46 -109 -3 -233 50 -146 46 -198
-16 -213 -40 -10 -66 10 -96 78 -16 34 -47 87 -70 117 -54 71 -76 137 -69 204
4 28 2 58 -3 66 -9 13 -13 11 -31 -9 -17 -21 -23 -23 -39 -13 -16 10 -22 7
-36 -18 -14 -23 -21 -27 -32 -18 -10 9 -18 9 -34 -1 -17 -10 -22 -9 -34 6 -7
10 -14 21 -14 26 0 14 -95 7 -174 -13 -137 -35 -211 -22 -262 45 -19 26 -34
35 -55 35 -33 0 -36 -7 -11 -27 16 -13 16 -13 -3 -11 -27 4 -32 -28 -6 -37 12
-3 21 -10 21 -15 0 -5 -7 -7 -15 -4 -8 4 -22 3 -31 0 -15 -6 -14 -10 6 -31 26
-28 46 -31 85 -13 20 9 28 9 38 -1 9 -9 7 -13 -11 -17 -26 -7 -29 -24 -4 -25
52 -3 104 -8 167 -16 62 -7 70 -11 75 -32 7 -31 60 -41 60 -10 0 21 16 26 23
7 3 -9 10 -7 26 6 22 20 22 20 28 -2 5 -22 23 -31 23 -12 0 24 18 6 30 -30 9
-27 29 -53 59 -77 61 -50 66 -55 80 -81 17 -33 8 -51 -23 -45 -23 5 -26 2 -26
-21 0 -28 17 -34 39 -13 22 20 3 -44 -20 -69 -22 -24 -23 -31 -7 -84 13 -39
13 -39 59 -36 40 3 48 1 52 -15 6 -21 32 -26 42 -8 5 7 14 4 26 -7 14 -12 19
-31 19 -68 1 -28 7 -69 15 -91 8 -22 15 -41 15 -42 0 -9 -35 0 -56 13 -20 14
-30 15 -49 6 -26 -12 -37 -56 -11 -46 8 3 16 -4 20 -18 6 -22 7 -23 21 -4 11
14 15 16 15 5 0 -32 14 -38 57 -27 66 16 74 31 77 147 1 55 5 103 8 107 4 3 3
14 -2 23 -5 9 -11 28 -14 42 -4 20 -17 30 -50 43 -24 9 -51 25 -61 36 -18 20
-13 40 11 40 17 0 16 -2 5 35 -9 32 2 75 19 75 5 0 9 -3 9 -7 -7 -44 41 -83
103 -83 28 0 42 7 63 31 25 30 26 36 22 124 -2 50 -6 96 -10 102 -5 8 -3 108
3 108 4 0 6 71 2 78 -2 4 -10 3 -18 -4 -21 -17 -18 5 7 55 12 22 25 49 30 58
12 24 11 85 -1 109 -24 44 -105 61 -165 35z"/>
<path d="M1430 2403 c0 -8 9 -17 20 -20 11 -3 20 -14 20 -24 0 -14 7 -19 25
-19 14 0 25 -4 25 -8 0 -5 14 -7 31 -4 21 3 29 9 25 19 -3 8 -6 19 -6 25 0 6
-12 7 -31 3 -28 -6 -30 -5 -27 17 3 21 -1 23 -39 25 -32 1 -43 -3 -43 -14z"/>
<path d="M1790 2404 c0 -10 -5 -14 -15 -10 -10 4 -20 -3 -27 -20 -9 -19 -17
-24 -34 -20 -17 5 -23 1 -28 -19 -6 -23 -10 -25 -41 -19 -34 6 -35 5 -35 -24
0 -33 14 -50 25 -31 4 6 18 8 30 5 18 -5 25 -1 30 14 7 21 39 27 50 10 12 -19
35 -11 32 13 -2 18 2 21 21 19 20 -3 23 0 18 16 -4 13 -1 22 9 25 12 5 13 11
3 32 -12 28 -38 34 -38 9z"/>
<path d="M1880 2255 c1 -26 2 -28 11 -12 8 14 8 22 0 30 -8 8 -11 3 -11 -18z"/>
<path d="M1622 1885 c-24 -19 -60 -39 -81 -45 -47 -12 -91 -46 -91 -69 0 -9
-7 -27 -16 -40 -16 -22 -16 -24 0 -33 13 -8 15 -13 5 -24 -9 -11 -8 -15 5 -20
12 -5 14 -10 6 -19 -8 -9 -5 -14 10 -18 12 -3 18 -11 15 -20 -4 -8 4 -21 20
-31 l25 -17 -24 -22 c-15 -13 -28 -40 -33 -67 -9 -49 -29 -61 -68 -40 -12 6
-35 10 -51 8 -23 -2 -30 -8 -32 -30 -2 -16 1 -28 7 -28 6 0 11 6 12 13 1 6 4
1 8 -13 6 -19 13 -24 30 -22 17 1 22 -2 18 -13 -8 -19 10 -30 26 -16 7 5 35
14 62 18 49 8 50 9 53 46 3 34 20 54 47 55 6 1 12 9 14 19 2 10 12 26 23 37
14 13 18 26 14 45 -15 63 -18 109 -7 116 9 5 9 10 0 21 -8 10 -8 14 0 14 6 0
11 9 11 21 0 15 5 19 18 15 23 -7 46 39 32 64 -10 18 3 72 22 97 13 16 1 33
-20 32 -9 0 -36 -16 -60 -34z"/>
<path d="M2722 2681 c-20 -12 -12 -176 8 -176 12 0 16 17 18 84 3 86 -3 106
-26 92z"/>
<path d="M2961 2676 c-18 -22 -11 -171 9 -171 12 0 16 17 18 84 3 86 -5 113
-27 87z"/>
<path d="M3083 2683 c-9 -3 -13 -32 -13 -95 0 -80 2 -89 18 -86 14 3 17 17 20
87 3 84 -2 102 -25 94z"/>
<path d="M2834 2667 c-3 -8 -4 -47 -2 -88 2 -61 6 -74 21 -77 15 -3 17 6 17
87 0 75 -3 91 -15 91 -9 0 -18 -6 -21 -13z"/>
<path d="M2592 2448 c-9 -9 -12 -89 -12 -299 0 -252 2 -288 16 -293 28 -11
614 -7 635 4 18 10 19 24 19 295 0 271 -1 285 -19 295 -29 15 -623 14 -639 -2z
m596 -40 c9 -9 12 -79 12 -255 0 -243 0 -243 -22 -252 -27 -9 -521 -6 -537 3
-16 10 -15 488 1 504 17 17 529 17 546 0z"/>
<path d="M2780 2330 c0 -5 5 -10 10 -10 6 0 10 -27 10 -60 0 -33 4 -60 10 -60
6 0 10 30 10 70 0 63 -2 70 -20 70 -11 0 -20 -4 -20 -10z"/>
<path d="M2975 2324 c-19 -20 -17 -105 3 -112 9 -3 11 6 6 36 -7 43 8 82 31
82 19 0 29 -41 21 -90 -8 -48 -2 -50 20 -9 15 29 15 34 -2 70 -19 43 -50 52
-79 23z"/>
<path d="M2838 2047 c3 -34 0 -57 -7 -61 -6 -4 -11 -13 -11 -19 0 -7 12 1 26
18 20 23 24 37 20 60 -4 16 -12 36 -20 43 -10 11 -12 4 -8 -41z"/>
<path d="M2998 2038 c4 -64 17 -94 27 -66 3 8 5 40 3 69 -2 39 -7 55 -19 57
-13 2 -15 -7 -11 -60z"/>
<path d="M2766 2074 c-12 -31 -6 -81 12 -97 27 -25 35 -21 16 8 -11 18 -15 38
-11 65 5 40 -5 55 -17 24z"/>
<path d="M3303 2373 c-18 -7 -16 -30 3 -37 28 -11 150 -6 162 6 24 24 -7 38
-82 37 -39 0 -77 -3 -83 -6z"/>
<path d="M2324 2355 c-11 -28 7 -35 91 -35 61 0 84 4 88 14 10 26 -17 36 -95
36 -60 0 -80 -4 -84 -15z"/>
<path d="M3297 2254 c-4 -4 -7 -14 -7 -21 0 -11 19 -13 93 -11 74 2 92 6 92
18 0 12 -17 16 -85 18 -47 1 -89 0 -93 -4z"/>
<path d="M2325 2240 c-14 -23 13 -31 96 -28 67 2 84 6 84 18 0 12 -18 16 -87
18 -56 2 -89 -1 -93 -8z"/>
<path d="M3297 2134 c-4 -4 -7 -14 -7 -21 0 -11 19 -13 93 -11 74 2 92 6 92
18 0 12 -17 16 -85 18 -47 1 -89 0 -93 -4z"/>
<path d="M2325 2120 c-14 -23 13 -31 96 -28 67 2 84 6 84 18 0 12 -18 16 -87
18 -56 2 -89 -1 -93 -8z"/>
<path d="M3301 2006 c-18 -22 12 -33 89 -35 71 -1 96 8 87 33 -9 22 -158 23
-176 2z"/>
<path d="M2343 2003 c-18 -7 -16 -30 3 -37 9 -3 42 -6 74 -6 66 0 90 7 90 25
0 7 -7 16 -16 19 -18 7 -133 7 -151 -1z"/>
<path d="M2732 1708 c2 -75 6 -93 18 -93 12 0 15 17 15 90 0 78 -2 90 -18 93
-16 3 -18 -5 -15 -90z"/>
<path d="M2857 1794 c-4 -4 -7 -44 -7 -90 0 -64 3 -83 15 -88 22 -8 26 10 23
99 -3 72 -13 97 -31 79z"/>
<path d="M2977 1794 c-4 -4 -7 -44 -7 -90 0 -64 3 -83 15 -88 22 -8 26 10 23
99 -3 72 -13 97 -31 79z"/>
<path d="M3095 1787 c-3 -7 -5 -49 -3 -93 2 -62 6 -79 18 -79 12 0 15 17 15
89 0 63 -4 91 -12 93 -7 3 -15 -2 -18 -10z"/>
<path d="M3801 2254 c-36 -95 -51 -181 -51 -292 0 -111 7 -150 42 -242 28 -72
35 -79 48 -44 6 16 15 39 22 51 8 16 8 33 -2 65 -7 24 -15 88 -17 143 -4 98 2
143 34 232 15 41 15 43 -11 73 -14 18 -26 38 -26 45 0 35 -19 19 -39 -31z"/>
<path d="M572 2254 l-33 -45 20 -57 c42 -123 43 -202 4 -385 -3 -15 -1 -33 4
-40 6 -6 13 -24 17 -39 14 -61 46 -15 82 120 16 62 19 248 4 307 -20 77 -55
185 -60 184 -3 0 -20 -21 -38 -45z"/>
<path d="M472 1697 c0 -34 -3 -121 -7 -194 -7 -119 -5 -138 14 -200 27 -85 55
-146 91 -198 36 -52 94 -115 106 -115 6 0 8 39 6 98 -3 75 0 111 14 157 l19
60 7 -150 c6 -151 15 -212 36 -251 12 -23 83 -84 121 -104 21 -11 23 -10 18 3
-20 53 -29 109 -23 158 12 116 31 119 39 7 6 -90 24 -153 62 -210 20 -31 53
-51 183 -117 294 -149 400 -236 474 -388 44 -91 50 -94 108 -53 42 29 60 28
79 -5 29 -54 62 -95 76 -95 8 0 30 9 50 20 49 27 60 25 85 -15 12 -19 40 -50
63 -70 39 -34 43 -35 124 -35 l84 0 49 50 c28 27 50 55 50 63 0 33 22 36 71
11 27 -13 55 -24 62 -24 8 0 34 29 57 65 l42 64 59 -30 c32 -17 63 -28 68 -25
5 4 15 23 22 44 19 57 84 155 137 203 69 65 173 131 340 216 81 42 157 84 169
95 51 47 102 202 90 275 -7 38 7 52 22 24 14 -25 14 -171 1 -205 -5 -14 -6
-27 -2 -30 9 -5 122 87 135 109 22 39 39 201 32 310 -5 96 -4 107 8 85 26 -48
40 -147 34 -238 l-6 -87 62 65 c89 93 139 198 168 351 9 52 10 83 1 137 -7 39
-12 105 -12 147 0 66 -2 76 -16 73 -31 -6 -57 -55 -68 -130 l-11 -73 -28 28
c-15 15 -32 27 -37 27 -22 0 -8 -77 26 -153 29 -63 35 -86 28 -105 -11 -31
-36 -47 -59 -39 -14 6 -16 18 -13 67 1 33 2 60 0 60 -2 0 -12 -5 -23 -10 -14
-8 -19 -7 -21 2 0 7 -2 18 -3 23 -2 6 -3 20 -4 33 -1 26 -19 29 -36 5 -12 -16
-15 -14 -31 19 -27 57 -44 57 -44 0 -1 -26 -7 -65 -15 -87 -20 -56 -19 -121 5
-185 25 -68 25 -102 2 -123 -26 -24 -49 -21 -68 8 -15 23 -15 33 -4 85 14 66
9 81 -20 63 -15 -10 -21 -8 -35 13 -24 37 -35 20 -35 -57 0 -62 -2 -69 -20
-69 -25 0 -25 -5 -1 -38 33 -47 46 -123 31 -176 -13 -48 -75 -116 -105 -116
-19 0 -19 0 10 40 25 34 33 70 16 70 -6 0 -13 -4 -16 -10 -14 -22 -20 -7 -17
40 2 27 2 50 0 50 -3 0 -54 -48 -114 -107 -92 -91 -117 -122 -158 -201 -43
-80 -63 -105 -147 -183 -87 -81 -173 -189 -192 -242 -4 -9 -11 -17 -16 -17
-11 0 -63 28 -107 56 -22 15 -24 15 -30 -2 -26 -80 -56 -134 -76 -134 -5 0
-30 14 -55 30 -24 17 -48 30 -52 30 -5 0 -20 -24 -34 -53 -30 -60 -100 -135
-134 -143 -54 -14 -131 51 -176 148 -12 26 -25 47 -29 48 -4 0 -29 -13 -55
-30 -26 -16 -53 -30 -61 -30 -7 0 -29 34 -48 76 -32 69 -37 74 -52 62 -22 -19
-91 -58 -102 -58 -4 0 -16 16 -27 35 -33 64 -95 139 -164 200 -84 73 -145 151
-190 241 -19 37 -54 88 -79 113 -79 80 -159 151 -171 151 -11 0 -8 -34 7 -73
6 -15 3 -17 -20 -11 -34 8 -34 -11 -1 -56 35 -47 31 -54 -14 -31 -83 43 -112
160 -63 260 26 53 27 61 7 61 -12 0 -15 13 -15 58 0 34 -6 66 -14 78 -14 18
-15 18 -21 -9 -5 -19 -12 -26 -21 -23 -8 3 -21 9 -29 12 -19 8 -20 -31 -4 -87
10 -32 9 -42 -5 -64 -20 -30 -61 -34 -76 -6 -15 29 -12 61 10 126 25 72 25
102 1 190 -11 39 -19 79 -18 90 3 33 -27 23 -38 -12 -11 -39 -18 -41 -39 -11
-20 28 -30 17 -31 -33 0 -39 -1 -40 -29 -35 l-29 6 5 -52 c3 -29 3 -59 1 -65
-8 -23 -52 -15 -69 12 -18 27 -17 30 32 140 31 68 38 100 26 120 -8 15 -12 14
-36 -11 -33 -36 -41 -26 -50 57 -6 61 -26 103 -56 119 -16 8 -17 3 -18 -53z"/>
<path d="M2175 236 c-18 -13 -19 -17 -6 -53 16 -45 29 -63 46 -63 15 0 42 38
50 73 12 47 -47 75 -90 43z"/>
</g>
</svg>